<?xml version="1.0" encoding="UTF-8"?>
<svg xmlns="http://www.w3.org/2000/svg" version="1.1" viewBox="0 0 555.95 484.11">
  <!-- Generator: Adobe Illustrator 29.8.2, SVG Export Plug-In . SVG Version: 2.1.1 Build 3)  -->
  <defs>
    <style>
      .st0, .st1, .st2 {
        fill: #8dc63f;
      }

      .st3, .st4, .st5, .st6, .st1, .st2, .st7 {
        stroke-miterlimit: 10;
      }

      .st3, .st4, .st5, .st1, .st2, .st7 {
        stroke: #231f20;
      }

      .st3, .st5 {
        fill: #00a79d;
      }

      .st4, .st8 {
        fill: #00aeef;
      }

      .st5 {
        opacity: 0;
      }

      .st6 {
        stroke: #00a79d;
      }

      .st6, .st7 {
        fill: #231f20;
      }

      .st1 {
        stroke-width: .25px;
      }

      .st2 {
        stroke-width: .5px;
      }
    </style>
  </defs>
  <g id="Layer_1">
    <path class="st4" d="M146.67,439.66c-6.59-2.02-36.12-20.41-22.26-65.58s34.95-68.18,37.03-78.13c4.04-19.23-7.23,33.6-21.09,78.77-13.86,45.17,12.91,66.96,6.32,64.93Z"/>
    <path class="st4" d="M288.33,426.81c-7.69,2.7,13.97-12-.27-52.53-14.24-40.54-19.15-57.1-23.22-65.42-7.89-16.09,24.97,15.35,39.21,55.89,14.24,40.54-8.02,59.36-15.71,62.06Z"/>
    <path class="st4" d="M260.48,156.81h-42.83c-6.6,0-12-5.4-12-12l14.54-42.11c0-6.6-9.14-12.72-2.54-12.72h42.83c6.6,0-1.94,7.98-1.94,14.58l13.94,40.25c0,6.6-5.4,12-12,12Z"/>
    <path class="st4" d="M349.23,249.43c-39.94,108.15-102.11,55.57-155.01,108.15-38.09,37.86-88.05-61.61-88.05-150.05s100.76-75.7,175.35-75.7,98.36,34.63,67.72,117.6Z"/>
    <path class="st4" d="M87.65,482.73c-11.47-8.42-60.05-59.5-21.08-112.58,38.97-53.09,84.52-68.38,91.33-80.87,13.18-24.16-23.35,42.07-62.32,95.15-38.97,53.09,3.54,106.72-7.93,98.3Z"/>
    <path class="st4" d="M320.62,472.38c-13.43,4.72,24.86-19.6,3.02-81.73-21.83-62.13-29.17-87.57-35.64-100.25-12.51-24.52,41.97,22.22,63.81,84.35,21.83,62.13-17.76,92.9-31.19,97.62Z"/>
    <ellipse class="st8" cx="289.61" cy="282.54" rx="25.98" ry="22.03"/>
    <ellipse class="st8" cx="148.26" cy="294.16" rx="25.98" ry="22.03"/>
    <path class="st4" d="M303.25,78.38c-42.25,45.35-99.36,53.41-130.82,0-19.09-32.41,173.89-46.22,130.82,0Z"/>
    <path class="st4" d="M319.22,53.15c0,19.15-30.53,16.7-81.39,16.7s-75.56,2.45-75.56-16.7S186.98.5,237.84.5s81.39,33.5,81.39,52.65Z"/>
    <ellipse class="st4" cx="208.06" cy="70.81" rx="18.73" ry="4.51"/>
    <ellipse class="st4" cx="210.55" cy="70.94" rx="8.76" ry="4.37"/>
    <ellipse class="st7" cx="210.55" cy="70.81" rx="2.48" ry=".96"/>
    <ellipse class="st4" cx="266.85" cy="70.81" rx="18.73" ry="4.51"/>
    <ellipse class="st4" cx="264.36" cy="70.68" rx="8.76" ry="4.37"/>
    <ellipse class="st7" cx="264.36" cy="70.81" rx="2.48" ry=".96"/>
    <rect class="st8" x="226.79" y="53.15" width="21.34" height="33.94"/>
    <path class="st6" d="M252.3,103.99c6.42-1.98-7.18,10.67-22.03,10.67s-14.95-4.06-14.14-10.74c2.35-19.28,9.61,5.52,9.09-9.33-.77-22.07,19.3,11.79,27.09,9.39Z"/>
    <polygon class="st2" points="225.05 104.46 226.72 113.12 221.36 112.77 225.05 104.46 225.05 104.46"/>
    <polygon class="st1" points="229.06 104.71 230.73 113.37 225.36 113.02 229.06 104.71 229.06 104.71"/>
    <polygon class="st1" points="230.91 104.54 234.9 112.4 229.64 113.54 230.91 104.54 230.91 104.54"/>
    <polygon class="st1" points="235.08 104.28 239.07 112.15 233.81 113.29 235.08 104.28 235.08 104.28"/>
    <polygon class="st1" points="238.03 103.46 243.47 110.41 238.53 112.54 238.03 103.46 238.03 103.46"/>
    <polygon class="st1" points="242.15 101.96 247.59 108.91 242.65 111.04 242.15 101.96 242.15 101.96"/>
    <polygon class="st2" points="222.28 106.5 221.6 112.79 218.15 111.52 222.28 106.5 222.28 106.5"/>
    <polygon class="st2" points="244.92 102.78 250.26 106.16 247.6 108.7 244.92 102.78 244.92 102.78"/>
    <path class="st4" d="M428.48,170.64h75.17c-18.72,4.77-85.6,21.84-113.84,25.04-55.07,6.25-73.44-18.57-74.22-25.44s56.78-22.61,111.85-28.86,100.63,10.99,101.41,17.86c.09.78-.41,1.63-1.49,2.53l-98.89,8.87Z"/>
    <polygon class="st1" points="220.05 102.18 217.75 99.22 220.22 98.28 220.05 102.18 220.05 102.18"/>
    <polygon class="st1" points="220.58 102.74 220.22 99.01 222.81 99.53 220.58 102.74 220.58 102.74"/>
    <polygon class="st1" points="223.32 103.8 222.54 100.13 225.17 100.36 223.32 103.8 223.32 103.8"/>
    <polygon class="st1" points="227.37 102.91 224.91 100.08 227.32 99.01 227.37 102.91 227.37 102.91"/>
    <polygon class="st1" points="229.53 99.59 225.81 99.12 226.89 96.71 229.53 99.59 229.53 99.59"/>
    <polygon class="st1" points="229.86 96.92 226.14 97.42 226.57 94.82 229.86 96.92 229.86 96.92"/>
    <polygon class="st1" points="229.49 94.47 225.85 95.37 225.99 92.73 229.49 94.47 229.49 94.47"/>
    <polygon class="st1" points="228.56 93.12 225.95 93.25 226.51 91.3 228.56 93.12 228.56 93.12"/>
    <polygon class="st1" points="228.03 91.61 225.89 91.72 226.35 90.13 228.03 91.61 228.03 91.61"/>
    <polygon class="st1" points="229.09 90.1 229.41 88.2 230.62 88.8 229.09 90.1 229.09 90.1"/>
    <polygon class="st1" points="228.32 90.35 226.19 90.46 226.64 88.87 228.32 90.35 228.32 90.35"/>
    <polygon class="st1" points="228.69 89.86 226.65 89.21 227.63 87.88 228.69 89.86 228.69 89.86"/>
    <polygon class="st0" points="228.73 90.16 228.05 88.14 229.7 88.14 228.73 90.16 228.73 90.16"/>
    <polygon class="st1" points="228.95 92.15 230.57 88.77 232.51 90.56 228.95 92.15 228.95 92.15"/>
    <polygon class="st1" points="230.48 93.41 232.11 90.03 234.05 91.82 230.48 93.41 230.48 93.41"/>
    <polygon class="st1" points="231.77 94.68 233.4 91.3 235.34 93.09 231.77 94.68 231.77 94.68"/>
    <polygon class="st1" points="233.43 95.91 235.06 92.53 237 94.32 233.43 95.91 233.43 95.91"/>
    <polygon class="st1" points="234.66 97.23 236.28 93.85 238.22 95.64 234.66 97.23 234.66 97.23"/>
    <polygon class="st1" points="236.08 98.43 237.7 95.05 239.64 96.84 236.08 98.43 236.08 98.43"/>
    <polygon class="st1" points="237.46 99.97 239.08 96.59 241.02 98.38 237.46 99.97 237.46 99.97"/>
    <polygon class="st1" points="238.81 101.28 240.43 97.89 242.38 99.68 238.81 101.28 238.81 101.28"/>
    <path class="st4" d="M78.96,211.59l-53.34,45.14c16.14-7.86,73.86-35.9,95.83-50.58,42.84-28.63,40.97-57.28,37.4-62.62s-53.87,18.05-96.71,46.68S-2.7,258.43.88,263.77c.41.61,1.27.91,2.57.9l75.51-53.08Z"/>
    <ellipse class="st8" cx="327.99" cy="183.12" rx="18.45" ry="38.9"/>
    <ellipse class="st8" cx="154.53" cy="180.92" rx="18.45" ry="38.9"/>
    <path class="st8" d="M183.98,208.1"/>
    <path class="st4" d="M272.48,144.81"/>
    <path class="st8" d="M266.85,140.05c4.93,23.25,19.1,72.43,61.14,95.04,3.47,1.87,7.2,3.59,11.22,5.11"/>
    <circle class="st3" cx="219.95" cy="308.66" r="18.27"/>
    <circle class="st3" cx="168.43" cy="324.55" r="19.98"/>
    <circle class="st3" cx="160.53" cy="284.15" r="14.17"/>
    <circle class="st3" cx="265.88" cy="304.57" r="14.17"/>
    <circle class="st3" cx="299.75" cy="278.85" r="14.17"/>
    <circle class="st3" cx="138.06" cy="240.87" r="21.06"/>
    <circle class="st3" cx="199.92" cy="270.37" r="15.94"/>
    <circle class="st3" cx="250.72" cy="260.52" r="24.83"/>
    <circle class="st3" cx="182.21" cy="231.27" r="18.3"/>
    <circle class="st3" cx="215.86" cy="240.87" r="10.17"/>
    <circle class="st3" cx="294.58" cy="240.2" r="19.17"/>
    <circle class="st3" cx="327.99" cy="259.37" r="10.17"/>
    <path class="st3" d="M165.22,183.12"/>
  </g>
  <g id="hotspot">
    <circle class="st5" cx="228.88" cy="277.94" r="46.67"/>
  </g>
  <g id="hotspot_2">
    <ellipse class="st5" cx="233.38" cy="111.06" rx="33.47" ry="28.99"/>
  </g>
  <g id="hotspot_4">
    <circle class="st5" cx="508.17" cy="160.82" r="47.28"/>
  </g>
</svg>