<?xml version="1.0" encoding="UTF-8"?>
<svg id="M" xmlns="http://www.w3.org/2000/svg" viewBox="0 0 709.66 307.71">
  <defs>
    <style>
      .cls-1 {
        fill: #8e0000;
      }

      .cls-1, .cls-2 {
        stroke: #000;
        stroke-miterlimit: 10;
      }

      .cls-2 {
        fill: #e6e6e6;
      }
    </style>
  </defs>
  <polygon class="cls-2" points="22.98 192.38 17.83 197.27 20.41 211.91 20.41 227.1 22.98 229.82 22.98 242.97 35.82 249.49 59.58 252.3 93.69 255.49 120.62 251.43 144.57 247.33 173.31 220.87 178.32 177.63 163.13 151.12 139.6 135.04 127.99 127.29 115.18 127.29 96.42 118.36 88.67 120.15 49.6 87.67 49.74 81.07 54.07 75.1 52.13 69.87 79.59 55.99 98.07 54.95 109.74 56.14 122.42 57.19 133.76 61.81 150.18 73.01 155.7 84.05 162.42 84.65 166.6 80.02 165.25 54.95 168.24 50.02 167.49 40.62 161.97 34.95 146 33.76 134.51 29.43 114.21 29.43 103.62 31.52 77.05 30.62 66.12 35.78 53.95 36.93 37.2 51.16 26.87 66.77 17.83 84.21 17.83 92.01 19.51 97.83 20.04 109.11 37.83 132.23 45.44 140.42 96.3 159.85 107.96 161.15 115.25 168.92 125.62 169.25 144.33 192.36 144.63 211.38 134.61 221.72 119.37 230.72 96.14 232.35 92.36 229.18 88.78 232.35 73.84 232.15 65.11 222.72 51.32 222.37 30.71 192.16 22.98 192.38"/>
  <g>
    <polygon class="cls-1" points="285.82 150.38 279.15 150.38 276.18 153.13 267.45 150.94 263.2 154.74 232.66 155.3 227.25 150.6 218.6 150.38 215.21 154.24 208.18 154.41 204.15 159.24 207.46 171.19 206.99 175.14 200.54 182 189.65 182 185.2 176.83 185.7 169.66 186.34 161.66 186.18 149.74 184.56 146.1 186.51 134.01 184.09 124.65 184.09 113.28 188.51 106.84 206.02 108.36 209.66 115.4 209.66 131.29 214.16 134.99 219.72 134.85 221.83 132.6 252 132.1 263.31 135.1 268.32 132.01 284.32 132.21 285.82 132.29 285.82 150.38"/>
    <path class="cls-1" d="M329.64,60.1c-1.97-1.72-5.17-4.5-5.84-3.72-.64.81-9.53,6.89-9.53,6.89l-.39,6.75s2.64,2.92,1.86,3.2c-.81.25.11,6.89.11,6.89,0,0,1.06,1.58-1.72,1.97-2.78.42,0,15.26,0,15.26l-.53,15.37-2.39,9.14,3.33,7.28,2.25,2.7,5.81-.83,3.06-2.78,3.83,2.11,5.59.39,3.03-3.58,10.2.67,21.09-.67,5.42,4.7h6.36l5.17-4.42,7.03-.28,4.08-4.61-1.97-6.64-1.72-4.64.39-3.97,7.7-5.95,10.45.11,5.06,2.92.11,7.95-.92,5.45v14.09l2.39,4.86-2.39,4.36v8.23l2,1.44-.14,19.48-3.97,5.97-18.7-1.06-2.89-4.92v-18.15l-4.53-3.72-5.56.14-2.11,2.25-28.09-.25-14.03-1.33-3.97,3.17-17.23-.53-2.39,4.5.39,27.84,2,3.83-1.19,12.2-.14,14.17.28,11.25.64,1.47,5.97-.42,6.22-2.25,10.87.42,2.25,3.2-.39,18.65-4.11,2.67-11.53-1.06-3.83-2.39-36.18-.14-5.03,3.06-14.84-.28-5.7-3.97v-5.31l2.11-2.92-3.7-2.11v-4.22l4.61-5.17,6.67,3.2,12.84-1.58v-32.73l1.5-40.26v-3.03h.44v-18.06l-.44-.03V61.29l-1.25-2.95h-5.67l-3.58,3.45-12.23-3.45v-16.56l3.95-4.45h17.78l1,2.47,14.56-.25,4.2-2.22,23.95,1"/>
    <path class="cls-1" d="M327.36,38.34l8.39-1,6.92,2.47,4.7-4.2h11.87l2.22,2.72,8.64-.75,3.2-1.97,8.64,1.47,4.95,2,9.89-3.47,16.28,3.22,8.39-3.22h7.17l1.47,4.95,2,13.84v12.59l.97,17.53-3.7,3.95-6.06-.17-3.03-1.06-6.36-10.06-3.2-10.48-6.89-6.22-12.45-.92s-7.95.53-18.53.39c-10.61-.14-26.51-.92-26.51-.92,0,0-14.7,2.78-16.7,1.06"/>
  </g>
  <polygon class="cls-2" points="459.43 216.97 462.45 222.64 459.43 227.36 451.68 227.36 445.64 224.53 442.62 228.87 438.84 242.48 443.37 247.96 458.3 247.96 472.66 247.01 475.68 246.64 493.44 247.96 506.29 246.07 511.96 240.21 511.96 232.46 504.4 225.85 497.1 228.04 490.31 228.59 489.51 222.36 486.87 214.28 489.35 205.49 488.39 197.49 489.43 187.82 487.43 183.26 489.51 180.7 489.03 168.71 486.63 164.79 488.07 158.07 488.55 142.88 490.23 141.36 487.51 134.64 487.59 126.33 489.35 118.41 485.27 112.25 485.19 101.86 487.27 87.23 487.03 83.95 485.83 80.51 489.59 77.63 493.59 81.23 497.34 87.31 500.94 96.42 502.62 99.7 504.7 102.34 505.5 105.86 507.1 108.9 508.14 113.37 510.54 116.65 510.94 120.09 512.86 122.81 513.66 127.29 516.37 132.64 517.57 138.48 520.45 141.68 520.45 145.04 523.25 150.47 525.89 155.59 525.89 158.47 528.69 164.55 531.49 171.5 533.01 173.18 534.05 178.62 536.6 181.18 537.4 186.3 539.4 188.3 540.92 196.21 543.96 198.85 546.44 207.09 552.04 219.96 553.8 222.04 554.28 227.72 557.63 233.31 559.95 241.95 564.51 248.5 566.19 249.3 575.22 249.3 580.42 241.31 583.22 230.59 587.78 220.6 589.78 211.32 594.1 203.57 595.21 197.65 599.76 189.38 601.1 181 605.66 173.34 606.75 167.38 612.53 156.57 614.71 148.36 617.81 142.77 623.28 133.23 627.11 123.81 630.03 119.43 630.03 112.5 634.1 103.39 639.69 91.78 645.35 83.7 645.35 81.2 648.87 81.93 648.51 92.45 645.95 93.66 647.9 99.56 649.78 103.08 648.93 115.54 650.15 120.28 647.9 129.7 649.05 133.11 649.23 140.34 647.47 142.83 647.9 156.63 649.03 160.12 647.56 162.49 648.13 169.19 648.13 185.05 645.6 192 646.17 194.94 647.64 196.58 645.76 199.27 646.91 207.45 647.24 221.02 642.53 225.22 637.42 225.26 633.85 223.65 626.4 228.06 625.88 235.92 622.97 238.71 624.34 246.8 625.94 246.8 627.3 248.11 644.96 248.06 645.99 246.63 660.92 246.58 663.82 248 671.85 244.35 675.9 244.75 681.99 246.86 684.56 245.27 687.63 248.29 695.04 247.72 704.55 248.11 707.91 243.67 706.49 233.13 705.29 225.33 701.93 219.8 699.48 220.83 694.93 223.73 690.03 224.13 682.05 223.16 680.51 216.72 681.42 211.6 679.26 205.05 679.37 200.66 681.14 194.62 681.94 189.38 683.42 186.82 681.31 177.3 680.63 158.9 681.71 150.98 679.32 145.51 680.97 139.53 682.39 133.95 682.28 111.85 679.37 105.86 680.11 100.45 683.22 89.37 681.8 79.6 679.14 69.48 682.69 59.71 690.32 59.71 697.6 62.02 704 64.15 707.91 59.71 709.15 45.51 705.95 38.58 700.45 38.58 669.01 38.58 667.06 39.83 658 38.58 654.98 40.89 651.08 40.54 648.59 38.58 642.38 37.34 639.36 39.83 633.5 39.29 619.29 38.23 605.62 39.29 605.26 47.99 606.68 55.27 608.1 58.12 609.7 63.44 616.27 63.27 620.79 61.01 624.35 61.55 624.22 69.29 621.55 73.88 619.97 80.53 617.92 89.37 613.39 95.19 608.95 105.14 602.86 114.67 602.86 123.44 596.84 129.59 593.7 136.79 591.34 143.32 589.51 153.67 581.92 167.28 573.99 182.47 569.22 176.05 556.92 147.39 548.94 129.33 541.21 109.3 536.76 95.69 528.52 83.78 522.37 67.94 523.67 62.84 540.3 62.84 543.31 52.1 539.9 43.33 532.18 38.36 517.13 38.88 512.16 40.98 500.64 40.59 476.16 41.89 468.31 41.76 463.34 41.63 458.49 41.76 456.4 40.06 445.01 40.06 441.22 46.21 441.48 61.66 445.27 64.93 453.78 61.4 458.1 61.66 459.54 64.28 462.42 67.16 462.94 70.3 464.91 72.26 463.07 75.53 461.37 81.03 462.16 92.68 463.07 105.38 463.11 112.18 460.89 119.41 461.65 126.44 460.19 138.8 461.72 158.99 459.97 170.86 458.9 180.11 460.55 193.06 461.33 202.61 459.39 213.71 459.43 216.97"/>
</svg>